<?xml version="1.0" encoding="UTF-8"?>
<!DOCTYPE svg PUBLIC "-//W3C//DTD SVG 1.1//EN" "http://www.w3.org/Graphics/SVG/1.1/DTD/svg11.dtd">
<!-- Creator: CorelDRAW X7 -->
<svg xmlns="http://www.w3.org/2000/svg" xml:space="preserve" width="16.5354in" height="11.6929in" version="1.1" style="shape-rendering:geometricPrecision; text-rendering:geometricPrecision; image-rendering:optimizeQuality; fill-rule:evenodd; clip-rule:evenodd"
viewBox="0 0 16535 11693"
 xmlns:xlink="http://www.w3.org/1999/xlink">
 <defs>
  <style type="text/css">
   <![CDATA[
    .str0 {stroke:#91D8F7;stroke-width:55.5551}
    .str1 {stroke:#91D8F7;stroke-width:55.5551}
    .fil2 {fill:none}
    .fil1 {fill:#FEFEFE}
    .fil13 {fill:#373435}
    .fil12 {fill:#FFF212}
    .fil9 {fill:#F7B030}
    .fil10 {fill:#F18235}
    .fil5 {fill:#EB4038}
    .fil8 {fill:#B14469}
    .fil0 {fill:#91D8F7}
    .fil4 {fill:#A3CD46}
    .fil3 {fill:#616163}
    .fil7 {fill:#664F9C}
    .fil11 {fill:#209D98}
    .fil6 {fill:#3169AE}
   ]]>
  </style>
    <clipPath id="id0">
     <rect x="6253" y="5735" width="9.05118" height="14.4094"/>
    </clipPath>
     <clipPath id="id1">
      <rect transform="matrix(0.651095 -0 -0 -0.651095 6253.46 5749.54)" width="13.9016" height="22.1339"/>
     </clipPath>
 </defs>
 <g id="PowerClip_x0020_Contents">
  <metadata id="CorelCorpID_0Corel-Layer"/>
  <g id="_2905940694032">
   <g>
    <rect class="fil0" transform="matrix(0.939457 -0.337274 0.337274 0.939457 6596.62 6556.98)" width="5438" height="4042"/>
    <rect class="fil1" transform="matrix(0.874819 -0.314068 0.304163 0.847228 6839.27 6680.26)" width="5438" height="4042"/>
    <line class="fil2 str0" x1="7734" y1="9361" x2="12551" y2= "7632" />
    <line class="fil2 str0" x1="7728" y1="6361" x2="8683" y2= "9021" />
    <line class="fil2 str0" x1="8785" y1="5982" x2="9740" y2= "8641" />
    <line class="fil2 str0" x1="9803" y1="5616" x2="10757" y2= "8276" />
    <line class="fil2 str0" x1="10781" y1="5265" x2="11736" y2= "7924" />
    <line class="fil2 str0" x1="8205" y1="7691" x2="9262" y2= "7311" />
    <line class="fil2 str0" x1="10280" y1="6946" x2="11259" y2= "6595" />
   </g>
   <line class="fil2 str1" x1="10237" y1="8463" x2="10511" y2= "9227" />
  </g>
  <g id="_2905940681520">
   <g style="clip-path:url(#id0)">
    <image style="clip-path:url(#id1)" transform="matrix(0.651095 -0 -0 -0.651095 6245.59 5754.6)" x="0" y="0" width="35" height="41" xlink:href="draft1_Images\draft1_ImgID1.png"/>
   </g>
   <path class="fil3" d="M6528 7035c0,70 -57,127 -127,127l-1227 0c-71,0 -128,-57 -128,-127 0,-71 57,-128 128,-128l1227 0c70,0 127,57 127,128z"/>
   <path class="fil3" d="M6528 7363c0,71 -57,128 -127,128l-1227 0c-71,0 -128,-57 -128,-128 0,-70 57,-127 128,-127l1227 0c70,0 127,57 127,127z"/>
   <path class="fil3" d="M6528 7692c0,70 -57,127 -127,127l-1227 0c-71,0 -128,-57 -128,-127 0,-71 57,-128 128,-128l1227 0c70,0 127,57 127,128z"/>
   <path class="fil3" d="M5323 7897l0 73c0,182 148,330 330,330l269 0c182,0 330,-148 330,-330l0 -73 -929 0z"/>
   <path class="fil4" d="M6389 5623c-155,0 -282,-127 -282,-283 0,-155 127,-282 282,-282 156,0 283,127 283,282 0,156 -127,283 -283,283zm502 -220l0 -125 -99 0c-4,-30 -12,-58 -22,-85l86 -49 -63 -109 -86 50c-18,-23 -39,-44 -62,-62l50 -86 -109 -63 -49 86c-27,-10 -55,-18 -85,-22l0 -100 -125 0 0 100c-29,4 -58,12 -84,22l-50 -86 -109 63 50 86c-23,18 -44,39 -62,62l-86 -50 -63 109 86 49c-10,27 -18,55 -22,85l-100 0 0 125 100 0c4,29 12,58 22,84l-86 50 63 109 86 -50c18,23 39,44 62,62l-50 86 109 63 50 -86c26,10 55,17 84,22l0 99 125 0 0 -99c30,-5 58,-12 85,-22l49 86 109 -63 -50 -86c23,-18 44,-39 62,-62l86 50 63 -109 -86 -50c10,-26 18,-55 22,-84l99 0z"/>
   <path class="fil5" d="M5624 6774c-42,0 -77,-35 -77,-77 0,-43 35,-77 77,-77 43,0 77,34 77,77 0,42 -34,77 -77,77zm137 -60l0 -34 -27 0c-1,-8 -3,-16 -6,-23l23 -14 -17 -29 -23 13c-5,-6 -11,-12 -17,-16l13 -24 -29 -17 -14 23c-7,-2 -15,-4 -23,-6l0 -27 -34 0 0 27c-8,2 -15,4 -23,6l-13 -23 -30 17 14 24c-6,4 -12,10 -17,16l-23 -13 -18 29 24 14c-3,7 -5,15 -6,23l-27 0 0 34 27 0c1,8 3,16 6,23l-24 13 18 30 23 -13c5,6 11,11 17,16l-14 24 30 17 13 -24c8,3 15,5 23,6l0 28 34 0 0 -28c8,-1 16,-3 23,-6l14 24 29 -17 -13 -24c6,-5 12,-10 17,-16l23 13 17 -30 -23 -13c3,-7 5,-15 6,-23l27 0z"/>
   <path class="fil6" d="M7010 5675c-38,0 -69,-31 -69,-69 0,-38 31,-69 69,-69 39,0 70,31 70,69 0,38 -31,69 -70,69zm123 -54l0 -30 -24 0c-1,-8 -3,-15 -5,-21l21 -12 -16 -27 -21 12c-4,-5 -9,-10 -15,-15l12 -21 -26 -15 -13 21c-6,-3 -13,-5 -20,-6l0 -24 -31 0 0 24c-7,1 -14,3 -21,6l-12 -21 -26 15 12 21c-6,5 -11,10 -15,15l-21 -12 -16 27 21 12c-2,6 -4,13 -5,21l-24 0 0 30 24 0c1,7 3,14 5,21l-21 12 16 27 21 -12c4,5 9,10 15,15l-12 21 26 15 12 -21c7,2 14,4 21,5l0 25 31 0 0 -25c7,-1 14,-3 20,-5l13 21 26 -15 -12 -21c6,-5 11,-10 15,-16l21 13 16 -27 -21 -12c2,-7 4,-14 5,-21l24 0z"/>
   <path class="fil5" d="M5970 5912c-39,0 -70,-31 -70,-70 0,-38 31,-69 70,-69 38,0 69,31 69,69 0,39 -31,70 -69,70zm122 -54l0 -31 -24 0c-1,-7 -3,-14 -5,-21l21 -12 -16 -26 -21 12c-4,-6 -9,-11 -15,-15l12 -21 -26 -16 -12 21c-7,-2 -14,-4 -21,-5l0 -24 -31 0 0 24c-7,1 -14,3 -20,5l-13 -21 -26 16 12 21c-6,4 -11,9 -15,15l-21 -12 -16 26 22 12c-3,7 -5,14 -6,21l-24 0 0 31 24 0c1,7 3,14 6,20l-22 13 16 26 21 -12c4,6 9,11 15,15l-12 21 26 16 13 -21c6,2 13,4 20,5l0 24 31 0 0 -24c7,-1 14,-3 21,-5l12 21 26 -16 -12 -21c6,-4 11,-9 15,-15l21 12 16 -26 -21 -13c2,-6 4,-13 5,-20l24 0z"/>
   <path class="fil7" d="M6815 3386c-80,0 -145,-65 -145,-145 0,-80 65,-145 145,-145 80,0 145,65 145,145 0,80 -65,145 -145,145zm258 -113l0 -64 -51 0c-2,-16 -6,-30 -11,-44l44 -25 -33 -56 -44 25c-9,-11 -20,-22 -31,-31l25 -45 -56 -32 -25 44c-14,-5 -29,-9 -44,-11l0 -51 -64 0 0 51c-15,2 -30,6 -43,11l-26 -44 -56 32 26 45c-12,9 -23,20 -32,31l-44 -25 -33 56 45 25c-6,14 -10,28 -12,44l-51 0 0 64 51 0c2,15 6,30 12,43l-45 26 33 56 44 -26c9,12 20,23 32,32l-26 44 56 32 26 -44c13,6 28,9 43,12l0 51 64 0 0 -51c15,-3 30,-6 44,-12l25 44 56 -32 -25 -44c11,-9 22,-20 31,-32l44 26 33 -56 -44 -26c5,-13 9,-28 11,-43l51 0z"/>
   <path class="fil6" d="M4417 3952c74,-67 189,-61 256,13 67,75 61,190 -13,257 -75,67 -190,61 -257,-14 -67,-74 -61,-189 14,-256zm-238 -138c-14,18 -26,37 -37,56l-87 -28 -16 -5 -5 16 -41 127 -6 17 17 5 86 28c-3,22 -4,45 -3,67l-89 19 -17 4 3 17 28 130 4 17 17 -3 89 -20c9,21 19,41 31,60l-68 62 -13 11 12 13 89 99 12 13 12 -12 68 -61c18,14 37,26 57,37l-29 87 -5 16 16 5 128 41 16 6 5 -17 28 -86c23,3 45,4 68,3l19 89 3 17 17 -3 131 -28 16 -4 -3 -17 -19 -89c20,-9 40,-19 60,-31l61 68 11 13 13 -11 99 -90 13 -11 -11 -13 -62 -68c14,-18 26,-37 37,-57l87 29 16 5 6 -16 41 -128 5 -16 -16 -5 -87 -28c3,-23 4,-45 4,-67l89 -20 16 -3 -3 -17 -28 -131 -4 -16 -16 3 -90 19c-8,-20 -18,-40 -30,-60l68 -61 12 -11 -11 -13 -90 -99 -11 -13 -13 11 -68 62c-18,-14 -37,-26 -56,-37l28 -87 5 -16 -16 -6 -127 -41 -17 -5 -5 16 -28 87c-22,-3 -45,-4 -67,-3l-19 -90 -4 -16 -17 3 -130 28 -17 4 4 16 19 90c-21,8 -41,19 -60,30l-62 -68 -11 -12 -13 11 -99 90 -13 11 12 13 61 68z"/>
   <path class="fil6" d="M6605 3647c27,-23 67,-21 90,5 24,26 22,66 -4,90 -26,23 -67,21 -90,-5 -24,-26 -22,-66 4,-90zm-83 -48c-5,6 -9,13 -13,19l-30 -9 -6 -2 -2 5 -14 45 -2 6 5 2 31 10c-1,7 -2,15 -1,23l-32 7 -6 1 2 6 10 46 1 6 6 -2 31 -6c3,7 7,14 11,21l-24 21 -5 4 5 5 31 35 4 4 4 -4 24 -21c7,4 13,9 20,12l-10 31 -2 6 6 2 45 14 5 2 2 -6 10 -30c8,1 16,1 24,1l6 31 2 6 6 -1 45 -10 6 -1 -1 -6 -7 -31c8,-3 15,-7 21,-11l22 24 4 4 4 -4 35 -31 5 -4 -4 -5 -22 -24c5,-6 9,-13 13,-19l31 9 5 2 2 -5 15 -45 2 -6 -6 -2 -31 -10c1,-7 2,-15 2,-23l31 -7 6 -1 -2 -6 -9 -46 -2 -6 -5 1 -32 7c-3,-7 -6,-14 -11,-21l24 -21 5 -4 -4 -5 -32 -35 -4 -4 -4 4 -24 21c-6,-4 -13,-9 -20,-13l10 -30 2 -6 -6 -2 -44 -14 -6 -2 -2 6 -10 30c-8,-1 -16,-1 -24,-1l-6 -31 -1 -6 -6 1 -46 10 -6 1 1 6 7 31c-7,3 -14,7 -21,11l-22 -24 -4 -4 -4 4 -35 31 -5 4 5 5 21 24z"/>
   <path class="fil8" d="M5092 2770c21,-18 52,-17 71,4 18,20 17,52 -4,70 -20,19 -52,17 -70,-3 -19,-21 -17,-52 3,-71zm-65 -38c-4,5 -7,10 -10,16l-24 -8 -4 -1 -2 4 -11 35 -2 4 5 2 24 8c-1,6 -1,12 -1,18l-25 5 -4 1 1 5 7 36 1 5 5 -1 24 -6c3,6 6,11 9,17l-19 17 -3 3 3 3 24 28 4 3 3 -3 19 -17c5,4 10,7 15,10l-8 24 -1 5 5 1 35 11 4 2 1 -5 8 -24c6,1 13,2 19,1l5 25 1 5 4 -1 36 -8 5 -1 -1 -5 -5 -24c5,-3 11,-5 16,-9l17 19 3 3 4 -3 27 -24 4 -3 -4 -4 -16 -19c3,-5 7,-10 10,-15l24 8 4 1 2 -4 11 -35 1 -5 -4 -1 -24 -8c1,-6 1,-12 1,-19l24 -5 5 -1 -1 -4 -8 -36 -1 -5 -4 1 -25 5c-2,-5 -5,-11 -8,-16l18 -17 4 -3 -3 -4 -25 -27 -3 -3 -3 3 -19 17c-5,-4 -10,-8 -16,-11l8 -23 2 -5 -5 -1 -35 -12 -4 -1 -2 4 -8 24c-6,-1 -12,-1 -18,-1l-5 -24 -1 -5 -5 1 -36 8 -4 1 1 4 5 25c-6,2 -11,5 -17,8l-16 -18 -4 -4 -3 3 -27 25 -4 3 3 4 17 18z"/>
   <path class="fil4" d="M5105 6195c30,-27 76,-25 103,5 27,30 25,77 -5,104 -30,27 -77,24 -104,-6 -27,-30 -24,-76 6,-103zm-96 -56c-6,7 -11,15 -15,23l-35 -12 -7 -2 -2 7 -16 51 -3 7 7 2 35 11c-1,9 -2,18 -1,27l-36 8 -7 1 1 7 12 53 1 7 7 -2 36 -7c3,8 7,16 12,24l-27 25 -5 4 4 5 36 40 5 6 5 -5 28 -25c7,6 14,11 22,15l-11 35 -2 7 6 2 52 16 6 3 3 -7 11 -35c9,1 18,2 27,1l8 36 1 7 7 -1 53 -11 6 -2 -1 -7 -8 -36c9,-3 17,-7 25,-12l24 27 5 5 5 -4 40 -36 5 -5 -4 -5 -25 -28c5,-7 10,-14 15,-22l35 11 6 2 3 -6 16 -52 2 -6 -6 -3 -35 -11c1,-9 1,-18 1,-27l36 -8 7 -1 -2 -7 -11 -53 -1 -7 -7 2 -36 8c-4,-9 -8,-17 -12,-24l27 -25 5 -5 -5 -5 -36 -40 -4 -5 -5 4 -28 25c-7,-5 -15,-10 -23,-15l12 -35 2 -6 -7 -3 -51 -16 -7 -2 -2 6 -11 35c-9,-1 -18,-1 -27,-1l-8 -36 -1 -7 -7 2 -53 11 -7 1 2 7 7 36c-8,4 -16,8 -24,13l-25 -28 -4 -5 -5 5 -40 36 -6 4 5 6 25 27z"/>
   <path class="fil9" d="M4553 5405c30,-27 76,-25 103,5 28,30 25,77 -5,104 -30,27 -76,24 -103,-6 -27,-30 -25,-76 5,-103zm-96 -56c-6,7 -11,15 -15,23l-35 -12 -6 -2 -3 7 -16 51 -2 7 6 2 35 11c-1,9 -1,18 -1,27l-36 8 -7 1 1 7 12 53 1 7 7 -2 36 -7c3,8 8,16 12,24l-27 25 -5 4 4 5 37 40 4 6 5 -5 28 -25c7,6 15,11 23,15l-12 35 -2 7 7 2 51 16 7 3 2 -7 11 -35c9,1 18,2 27,1l8 36 1 7 7 -1 53 -12 7 -1 -2 -7 -7 -36c8,-3 16,-7 24,-12l24 27 5 5 5 -4 40 -36 6 -5 -5 -5 -25 -28c6,-7 11,-14 15,-22l35 11 7 2 2 -6 16 -52 3 -6 -7 -3 -35 -11c1,-9 2,-18 1,-27l36 -8 7 -1 -1 -7 -12 -53 -1 -7 -7 2 -36 8c-3,-9 -8,-17 -12,-25l27 -24 5 -5 -4 -5 -36 -40 -5 -5 -5 4 -28 25c-7,-5 -15,-10 -22,-15l11 -35 2 -6 -7 -3 -51 -16 -7 -2 -2 6 -11 35c-9,-1 -18,-1 -27,-1l-8 -36 -1 -7 -7 2 -53 11 -7 1 2 7 8 36c-9,4 -17,8 -25,12l-24 -27 -5 -5 -5 5 -40 36 -5 4 4 5 25 28z"/>
   <path class="fil5" d="M4849 4815c30,-27 76,-25 103,5 27,30 25,77 -5,104 -30,27 -77,24 -104,-6 -27,-30 -25,-76 6,-103zm-96 -56c-6,7 -11,15 -15,23l-35 -12 -7 -2 -2 7 -17 51 -2 7 7 2 35 11c-1,9 -2,18 -2,27l-36 8 -6 1 1 7 11 53 2 7 6 -2 37 -7c3,8 7,16 12,24l-27 25 -6 4 5 5 36 41 5 5 5 -5 27 -25c8,6 15,11 23,15l-11 35 -2 7 6 2 52 17 6 2 2 -7 12 -35c9,1 18,2 27,1l7 36 2 7 7 -1 52 -11 7 -2 -1 -7 -8 -36c8,-3 16,-7 24,-12l25 27 5 5 5 -4 40 -36 5 -5 -5 -5 -24 -28c5,-7 10,-14 14,-22l36 11 6 2 2 -6 17 -52 2 -6 -7 -2 -35 -12c2,-9 2,-18 2,-27l36 -8 7 -1 -2 -7 -11 -53 -2 -6 -6 1 -36 8c-4,-9 -8,-17 -13,-24l28 -25 5 -5 -5 -5 -36 -40 -5 -5 -5 4 -27 25c-7,-5 -15,-10 -23,-15l11 -35 3 -6 -7 -2 -51 -17 -7 -2 -2 6 -11 35c-9,-1 -18,-1 -28,-1l-7 -36 -2 -7 -7 2 -52 11 -7 1 1 7 8 36c-8,4 -16,8 -24,13l-25 -28 -4 -5 -6 5 -40 36 -5 4 5 6 25 27z"/>
   <path class="fil10" d="M6259 4609c19,-17 49,-15 66,4 17,19 16,49 -4,66 -19,17 -48,16 -66,-3 -17,-20 -15,-49 4,-67zm-62 -35c-3,4 -6,9 -9,14l-23 -7 -4 -1 -1 4 -11 33 -1 4 4 1 22 7c0,6 -1,12 0,18l-23 5 -5 1 1 4 7 34 1 4 5 -1 23 -5c2,6 5,11 8,16l-18 16 -3 2 3 4 23 25 3 4 3 -3 18 -16c4,3 9,7 14,9l-7 23 -2 4 5 1 33 11 4 1 1 -4 7 -22c6,1 12,1 18,1l5 23 1 4 4 -1 34 -7 4 -1 -1 -4 -5 -23c5,-3 11,-5 16,-8l15 17 3 4 4 -3 25 -24 4 -3 -3 -3 -16 -17c3,-5 6,-10 9,-15l23 7 4 2 1 -4 11 -33 1 -5 -4 -1 -22 -7c0,-6 1,-12 1,-17l23 -5 4 -1 -1 -5 -7 -33 -1 -5 -4 1 -24 5c-2,-5 -4,-10 -7,-15l17 -16 3 -3 -3 -3 -23 -26 -3 -3 -3 3 -17 15c-5,-3 -10,-6 -15,-9l7 -22 2 -5 -5 -1 -32 -11 -5 -1 -1 4 -7 23c-6,-1 -12,-1 -18,-1l-5 -23 0 -5 -5 1 -34 7 -4 1 1 5 5 23c-5,2 -10,5 -15,8l-16 -18 -3 -3 -4 3 -25 23 -3 3 3 3 15 18z"/>
   <path class="fil9" d="M5575 4803c-123,0 -222,-99 -222,-221 0,-123 99,-222 222,-222 122,0 221,99 222,222 -1,122 -100,221 -222,221zm517 -147l0 -148 -155 0c-9,-46 -27,-88 -51,-125l111 -111 -105 -105 -109 109c-40,-27 -85,-47 -134,-57l0 -155 -148 0 0 155c-47,10 -91,29 -130,54l-106 -106 -105 105 106 106c-25,39 -44,83 -54,130l-155 0 0 148 156 0c10,49 29,94 56,134l-109 109 105 105 111 -111c37,24 80,42 125,51l0 155 148 0 0 -155c47,-10 91,-28 130,-54l113 114 105 -105 -114 -114c26,-38 45,-82 54,-129l155 0z"/>
   <path class="fil10" d="M5370 5767c-123,0 -222,-100 -222,-222 0,-123 99,-222 222,-222 122,0 221,99 222,222 -1,122 -100,222 -222,222zm517 -148l0 -148 -155 0c-9,-45 -27,-88 -51,-125l111 -111 -105 -105 -109 109c-40,-27 -85,-46 -134,-56l0 -156 -148 0 0 156c-47,9 -91,28 -130,54l-106 -107 -105 105 106 106c-25,39 -44,83 -53,130l-156 0 0 148 156 0c10,49 29,94 56,134l-109 109 105 105 111 -111c37,24 80,42 125,51l0 156 148 0 0 -156c47,-9 91,-28 130,-54l113 114 105 -105 -114 -113c26,-39 45,-83 54,-130l155 0z"/>
   <path class="fil9" d="M7181 3712c-56,0 -101,-45 -101,-101 0,-56 45,-102 101,-102 56,0 101,46 102,102 -1,56 -46,101 -102,101zm237 -67l0 -68 -71 0c-4,-21 -13,-40 -24,-57l51 -51 -48 -48 -50 50c-18,-12 -39,-21 -61,-26l0 -71 -68 0 0 71c-21,4 -41,13 -59,25l-49 -49 -48 48 49 49c-12,17 -20,37 -25,59l-71 0 0 68 71 0c5,22 14,43 26,61l-50 50 48 48 51 -51c17,11 36,19 57,23l0 72 68 0 0 -72c21,-4 42,-12 59,-24l52 52 48 -48 -52 -52c12,-18 20,-38 25,-59l71 0z"/>
   <path class="fil4" d="M4928 3197c0,75 -61,136 -136,136 -74,0 -135,-61 -135,-136 0,-74 61,-135 135,-135 75,0 136,61 136,135zm158 67l9 0 0 -9 0 -112 0 -10 -9 0 -76 0c-4,-15 -11,-30 -18,-44l53 -53 7 -7 -7 -7 -78 -79 -7 -6 -7 6 -54 54c-13,-7 -27,-13 -41,-17l0 -75 0 -9 -10 0 -112 0 -9 0 0 9 0 75c-14,4 -27,9 -40,16l-52 -53 -7 -6 -7 6 -79 79 -7 7 7 7 52 51c-8,14 -14,28 -19,43l-73 0 -10 0 0 10 0 111 0 10 10 0 72 0c5,16 12,31 20,46l-52 52 -7 6 7 7 79 79 7 7 7 -7 52 -53c14,8 28,13 43,17l0 74 0 10 10 0 111 0 10 0 0 -10 0 -75c13,-5 26,-10 38,-17l54 54 7 7 7 -7 78 -79 7 -7 -7 -6 -53 -54c7,-13 13,-27 17,-41l77 0 0 0z"/>
   <path class="fil8" d="M6291 4270c0,43 -35,79 -79,79 -43,0 -79,-36 -79,-79 0,-44 36,-79 79,-79 44,0 79,35 79,79zm93 39l5 0 0 -6 0 -65 0 -5 -5 0 -44 0c-3,-9 -7,-18 -11,-26l31 -32 4 -3 -4 -4 -46 -47 -4 -3 -4 3 -31 32c-8,-4 -16,-8 -25,-10l0 -44 0 -5 -5 0 -65 0 -6 0 0 5 0 44c-8,2 -16,5 -23,9l-31 -31 -4 -3 -4 3 -46 47 -4 4 4 3 30 31c-4,8 -8,16 -10,25l-43 0 -6 0 0 5 0 65 0 6 6 0 42 0c3,9 7,18 11,27l-30 30 -4 4 4 4 46 46 4 4 4 -4 31 -31c8,4 16,8 25,10l0 43 0 6 6 0 65 0 5 0 0 -6 0 -44c8,-2 16,-5 23,-9l31 31 4 4 4 -4 46 -46 4 -4 -4 -4 -31 -31c4,-8 7,-16 10,-24l45 0 0 0z"/>
   <path class="fil10" d="M6608 2868c0,44 -36,79 -80,79 -43,0 -79,-35 -79,-79 0,-44 36,-79 79,-79 44,0 80,35 80,79zm92 39l6 0 0 -6 0 -65 0 -5 -6 0 -44 0c-3,-9 -6,-18 -11,-26l31 -31 4 -4 -4 -4 -46 -46 -4 -4 -4 4 -31 31c-8,-4 -16,-7 -24,-10l0 -44 0 -5 -6 0 -65 0 -6 0 0 5 0 44c-8,2 -15,6 -23,9l-31 -30 -4 -4 -4 4 -46 46 -4 4 4 4 31 30c-5,8 -9,16 -11,25l-43 0 -6 0 0 5 0 66 0 5 6 0 42 0c3,10 7,19 12,27l-31 30 -4 4 4 4 46 46 4 4 4 -4 31 -31c8,5 16,8 25,10l0 44 0 5 6 0 65 0 5 0 0 -5 0 -45c8,-2 16,-5 23,-9l31 31 4 4 4 -4 46 -46 4 -4 -4 -4 -31 -31c4,-8 8,-16 10,-24l45 0z"/>
   <path class="fil4" d="M6457 3978c0,33 -27,59 -59,59 -33,0 -59,-26 -59,-59 0,-32 26,-58 59,-58 32,0 59,26 59,58zm68 29l4 0 0 -4 0 -48 0 -4 -4 0 -33 0c-2,-7 -4,-13 -8,-19l24 -24 3 -3 -3 -3 -35 -34 -2 -3 -3 3 -24 24c-6,-4 -12,-6 -18,-8l0 -32 0 -4 -4 0 -48 0 -5 0 0 4 0 32c-5,2 -11,4 -17,7l-23 -23 -3 -3 -2 3 -35 34 -3 3 3 3 23 23c-4,6 -6,12 -8,18l-32 0 -4 0 0 4 0 49 0 4 4 0 31 0c2,7 5,14 9,20l-23 22 -3 3 3 3 35 35 2 2 3 -2 23 -23c6,3 12,5 19,7l0 32 0 4 4 0 48 0 5 0 0 -4 0 -33c5,-2 11,-4 16,-7l24 24 3 2 2 -2 35 -35 3 -3 -3 -3 -24 -23c4,-5 6,-11 8,-18l33 0 0 0z"/>
   <path class="fil10" d="M4147 4688c0,26 -21,46 -46,46 -26,0 -47,-20 -47,-46 0,-26 21,-46 47,-46 25,0 46,20 46,46zm54 23l3 0 0 -3 0 -39 0 -3 -3 0 -26 0c-1,-5 -4,-10 -6,-15l18 -18 3 -3 -3 -2 -27 -27 -2 -2 -2 2 -19 19c-4,-3 -9,-5 -14,-6l0 -26 0 -3 -3 0 -39 0 -3 0 0 3 0 26c-4,1 -9,3 -13,5l-18 -18 -3 -2 -2 2 -27 27 -2 2 2 3 18 17c-3,5 -5,10 -7,15l-25 0 -3 0 0 3 0 39 0 3 3 0 25 0c2,5 4,11 7,16l-18 17 -2 3 2 2 27 27 2 2 3 -2 18 -18c4,2 9,4 14,6l0 25 0 3 4 0 38 0 3 0 0 -3 0 -26c5,-1 9,-3 13,-6l19 19 2 2 2 -2 27 -27 3 -2 -3 -3 -18 -18c2,-5 4,-9 6,-14l26 0 0 0z"/>
   <path class="fil6" d="M6022 6723c0,31 -26,57 -57,57 -32,0 -58,-26 -58,-57 0,-32 26,-57 58,-57 31,0 57,25 57,57zm66 28l4 0 0 -4 0 -47 0 -4 -4 0 -32 0c-1,-7 -4,-13 -7,-19l22 -22 3 -3 -3 -3 -33 -33 -3 -3 -3 3 -22 22c-6,-3 -12,-5 -18,-7l0 -32 0 -4 -4 0 -47 0 -4 0 0 4 0 32c-6,2 -11,4 -17,7l-22 -22 -3 -3 -3 3 -33 33 -3 3 3 3 22 21c-3,6 -6,12 -8,18l-31 0 -4 0 0 4 0 48 0 4 4 0 31 0c2,6 4,13 8,19l-22 22 -3 3 3 3 33 33 3 3 3 -3 22 -22c6,3 12,5 18,7l0 31 0 4 4 0 47 0 4 0 0 -4 0 -32c6,-2 11,-4 17,-7l22 23 3 3 3 -3 33 -33 3 -3 -3 -3 -22 -23c3,-5 5,-11 7,-17l32 0z"/>
   <path class="fil8" d="M5939 6249c0,72 -58,130 -130,130 -71,0 -130,-58 -130,-130 0,-72 59,-130 130,-130 72,0 130,58 130,130zm152 64l10 0 0 -9 0 -107 0 -9 -10 0 -73 0c-4,-15 -10,-29 -17,-42l52 -52 6 -6 -6 -7 -76 -76 -7 -6 -6 6 -52 52c-13,-7 -26,-12 -40,-16l0 -72 0 -9 -9 0 -107 0 -9 0 0 9 0 72c-13,4 -26,9 -38,15l-51 -51 -6 -6 -7 6 -76 76 -6 7 6 6 50 50c-7,13 -13,27 -18,41l-70 0 -10 0 0 9 0 107 0 9 10 0 69 0c5,16 11,31 19,45l-50 49 -6 7 6 6 76 76 7 6 6 -6 51 -51c13,7 26,13 41,17l0 71 0 9 9 0 107 0 9 0 0 -9 0 -73c13,-4 25,-9 37,-16l52 52 6 6 7 -6 76 -76 6 -6 -6 -7 -52 -51c7,-13 12,-26 17,-40l73 0z"/>
   <path class="fil7" d="M6259 6530c0,36 -29,65 -64,65 -36,0 -65,-29 -65,-65 0,-36 29,-65 65,-65 35,0 64,29 64,65zm76 32l4 0 0 -5 0 -53 0 -4 -4 0 -36 0c-3,-8 -5,-15 -9,-22l26 -25 3 -3 -3 -4 -38 -37 -3 -4 -4 4 -25 25c-7,-3 -13,-6 -20,-8l0 -36 0 -4 -5 0 -53 0 -5 0 0 4 0 36c-6,2 -13,5 -19,8l-25 -25 -3 -4 -3 4 -38 37 -3 4 3 3 25 25c-4,6 -7,13 -9,20l-35 0 -5 0 0 5 0 53 0 5 5 0 34 0c3,7 6,15 10,22l-25 24 -3 3 3 4 38 37 3 4 3 -4 25 -25c7,4 14,6 21,8l0 36 0 4 4 0 54 0 4 0 0 -4 0 -37c7,-2 13,-4 19,-7l25 25 4 4 3 -4 38 -37 3 -4 -3 -3 -26 -25c3,-7 6,-13 8,-20l37 0z"/>
   <path class="fil7" d="M5366 6723c0,38 -31,68 -69,68 -38,0 -69,-30 -69,-68 0,-38 31,-69 69,-69 38,0 69,31 69,69zm80 34l5 0 0 -5 0 -57 0 -5 -5 0 -38 0c-3,-7 -6,-15 -10,-22l28 -27 3 -4 -3 -3 -40 -40 -4 -4 -3 4 -28 27c-6,-3 -13,-6 -21,-9l0 -38 0 -4 -5 0 -56 0 -5 0 0 4 0 38c-7,3 -14,5 -20,9l-27 -27 -3 -4 -4 4 -40 40 -3 3 3 4 26 26c-4,7 -7,14 -9,22l-37 0 -5 0 0 5 0 56 0 5 5 0 37 0c2,8 5,16 9,23l-26 27 -3 3 3 4 40 40 4 3 3 -3 27 -27c7,3 14,6 22,8l0 38 0 5 4 0 57 0 5 0 0 -5 0 -39c7,-2 13,-4 19,-8l28 28 3 3 4 -3 40 -40 3 -4 -3 -3 -28 -28c4,-6 7,-13 9,-20l39 0z"/>
   <path class="fil5" d="M7221 5257c-3,51 -47,89 -98,86 -51,-3 -89,-46 -86,-97 3,-51 46,-90 97,-87 51,3 90,47 87,98zm105 52l6 0 0 -6 5 -76 0 -7 -6 0 -52 -3c-2,-11 -6,-21 -10,-31l38 -34 5 -4 -4 -5 -51 -57 -4 -5 -5 4 -39 35c-8,-6 -18,-10 -27,-14l3 -50 0 -7 -6 0 -76 -5 -6 0 -1 6 -3 51c-9,2 -19,5 -27,9l-34 -38 -4 -4 -5 4 -57 50 -5 5 4 4 33 38c-5,9 -10,18 -14,28l-50 -3 -7 0 0 6 -4 76 -1 7 7 0 49 3c3,11 6,22 11,32l-37 33 -5 4 5 5 50 57 4 5 5 -4 38 -34c9,5 19,10 29,13l-3 50 -1 7 7 0 75 5 7 0 0 -6 3 -52c10,-2 19,-5 27,-9l35 38 4 5 5 -4 57 -50 5 -5 -5 -5 -34 -38c5,-9 10,-18 13,-27l53 3z"/>
   <path class="fil5" d="M5758 3764c-213,0 -386,-173 -386,-386 0,-213 173,-386 386,-386 213,0 386,173 386,386 0,213 -173,386 -386,386zm686 -300l0 -172 -136 0c-6,-40 -16,-78 -31,-115l118 -68 -86 -149 -117 68c-25,-31 -54,-59 -85,-84l68 -117 -148 -86 -68 117c-37,-14 -76,-24 -116,-30l0 -136 -171 0 0 136c-40,6 -78,16 -115,30l-68 -117 -149 86 68 117c-31,25 -59,53 -84,84l-118 -68 -85 149 117 68c-14,37 -24,75 -30,115l-136 0 0 172 136 0c6,40 16,78 30,115l-117 68 85 148 118 -68c25,31 53,60 84,85l-68 117 149 86 68 -118c37,15 75,25 115,31l0 136 171 0 0 -136c40,-6 79,-16 116,-31l68 118 148 -86 -68 -117c31,-25 60,-54 85,-85l117 68 86 -148 -118 -68c15,-37 25,-75 31,-115l136 0z"/>
   <path class="fil5" d="M5758 3574c-109,0 -196,-88 -196,-196 0,-108 87,-196 196,-196 108,0 196,88 196,196 0,108 -88,196 -196,196z"/>
   <path class="fil11" d="M7074 4767c-182,10 -338,-129 -348,-311 -11,-182 129,-338 310,-348 182,-10 338,129 349,311 10,182 -129,338 -311,348zm571 -290l-8 -146 -116 7c-8,-34 -18,-67 -32,-97l97 -64 -80 -123 -97 64c-23,-25 -49,-48 -76,-68l52 -103 -131 -66 -52 103c-32,-10 -66,-17 -100,-20l-7 -116 -146 8 6 116c-33,7 -66,18 -96,32l-64 -97 -123 80 64 97c-26,23 -48,48 -68,76l-104 -52 -66 131 104 52c-10,32 -17,65 -21,100l-116 6 9 147 116 -7c7,34 17,66 31,97l-97 64 81 122 97 -63c22,25 48,48 76,68l-52 103 131 66 52 -103c32,10 65,17 100,20l6 116 147 -8 -7 -116c34,-7 66,-18 97,-32l63 97 123 -80 -63 -97c25,-23 48,-49 68,-76l103 52 66 -131 -104 -52c11,-32 18,-66 21,-100l116 -7z"/>
   <path class="fil11" d="M7065 4605c-93,5 -172,-66 -177,-158 -5,-93 65,-172 158,-177 92,-5 171,65 176,158 6,92 -65,171 -157,177z"/>
   <path class="fil8" d="M4386 5119c-85,5 -158,-60 -163,-145 -5,-85 60,-158 145,-163 85,-5 158,61 163,146 5,85 -60,158 -145,162zm267 -135l-4 -68 -54 3c-4,-16 -9,-31 -15,-46l45 -29 -37 -58 -46 30c-10,-12 -22,-23 -35,-32l24 -48 -61 -31 -24 48c-15,-4 -31,-8 -47,-9l-3 -55 -69 4 3 55c-15,3 -31,8 -45,14l-30 -45 -57 38 30 45c-12,11 -23,23 -32,36l-49 -25 -30 61 48 25c-5,15 -8,30 -10,47l-54 3 4 68 54 -3c4,16 9,31 15,45l-45 30 37 57 46 -29c10,12 22,22 35,32l-24 48 61 31 25 -49c15,5 30,8 46,10l3 54 69 -4 -3 -54c16,-3 31,-8 45,-15l30 46 57 -38 -30 -45c12,-11 23,-23 32,-36l49 24 30 -61 -48 -24c5,-15 8,-31 10,-47l54 -3z"/>
   <path class="fil8" d="M4381 5044c-43,2 -80,-31 -82,-74 -3,-43 30,-80 74,-83 43,-2 80,31 82,74 3,43 -30,80 -74,83z"/>
   <path class="fil10" d="M6373 6283c-78,5 -145,-55 -150,-133 -4,-79 56,-146 134,-150 78,-5 145,55 149,133 5,79 -55,146 -133,150zm245 -124l-3 -63 -50 3c-3,-15 -8,-29 -14,-42l42 -27 -35 -53 -41 27c-10,-11 -21,-20 -33,-29l23 -44 -57 -29 -22 45c-14,-5 -28,-8 -43,-9l-3 -50 -63 3 3 50c-15,3 -29,8 -42,14l-27 -42 -53 35 27 42c-10,9 -20,20 -29,32l-44 -22 -29 56 45 23c-4,13 -7,28 -9,42l-50 3 4 63 50 -3c3,15 7,29 13,42l-41 27 34 53 42 -27c10,11 21,21 33,29l-23 45 56 28 23 -45c14,5 28,8 43,9l3 50 63 -3 -3 -50c14,-3 28,-8 41,-14l28 42 52 -35 -27 -41c11,-10 21,-21 29,-33l45 22 28 -56 -44 -23c4,-13 7,-28 9,-42l49 -3z"/>
   <path class="fil10" d="M6369 6213c-40,3 -74,-28 -76,-67 -2,-40 28,-74 68,-76 39,-3 73,28 76,67 2,40 -28,74 -68,76z"/>
   <path class="fil5" d="M6673 5969c-32,2 -60,-23 -61,-55 -2,-33 22,-60 55,-62 32,-2 60,23 61,55 2,32 -22,60 -55,62zm102 -51l-2 -26 -20 1c-2,-6 -4,-12 -6,-17l17 -12 -14 -22 -17 12c-4,-5 -9,-9 -14,-12l10 -19 -24 -11 -9 18c-6,-2 -12,-3 -18,-4l-1 -20 -26 1 1 21c-6,1 -11,3 -17,5l-11 -17 -22 15 11 17c-4,4 -8,8 -12,13l-18 -9 -12 23 19 9c-2,6 -3,12 -4,18l-21 1 2 26 20 -1c2,6 4,12 6,17l-17 12 14 21 17 -11c4,5 9,9 14,12l-9 19 23 11 9 -18c6,2 12,3 18,4l1 20 26 -1 -1 -21c6,-1 12,-3 17,-6l11 18 22 -15 -11 -17c4,-4 8,-8 12,-13l18 9 12 -23 -19 -10c2,-5 4,-11 4,-17l21 -1z"/>
   <path class="fil5" d="M6672 5940c-17,1 -31,-11 -32,-28 -1,-16 12,-30 28,-31 17,-1 31,11 32,28 1,16 -12,30 -28,31z"/>
   <path class="fil11" d="M6342 6826c-36,2 -67,-25 -69,-62 -2,-36 26,-67 62,-69 36,-2 67,26 69,62 2,36 -25,67 -62,69zm114 -57l-2 -29 -23 1c-1,-7 -3,-13 -6,-19l19 -13 -16 -24 -19 12c-5,-5 -10,-9 -15,-13l10 -21 -26 -13 -10 21c-7,-3 -13,-4 -20,-5l-1 -23 -30 2 2 23c-7,2 -13,4 -19,6l-13 -19 -25 16 13 19c-5,5 -9,10 -13,15l-21 -10 -13 26 21 11c-3,6 -4,13 -5,19l-23 2 2 29 23 -1c1,6 4,13 6,19l-19 12 16 25 19 -13c5,5 10,10 15,14l-10 20 26 13 11 -20c6,2 13,3 19,4l2 23 29 -2 -1 -23c6,-1 13,-3 19,-6l12 19 25 -16 -13 -19c5,-5 10,-10 14,-15l20 10 13 -26 -20 -10c2,-7 3,-13 4,-20l23 -1z"/>
   <path class="fil11" d="M6341 6794c-19,1 -35,-13 -36,-31 -1,-19 13,-35 32,-36 18,-1 34,13 35,32 1,18 -13,34 -31,35z"/>
   <path class="fil5" d="M5454 6487c-30,2 -55,-21 -57,-51 -2,-30 21,-55 51,-57 30,-2 55,21 57,51 2,30 -21,56 -51,57zm94 -47l-2 -24 -19 1c-1,-6 -2,-11 -5,-16l16 -11 -13 -20 -16 11c-4,-4 -8,-8 -12,-11l8 -17 -21 -11 -9 17c-5,-2 -11,-3 -16,-4l-1 -19 -24 2 1 19c-6,1 -11,3 -16,5l-11 -16 -20 13 11 16c-5,4 -8,8 -12,13l-17 -9 -10 22 17 8c-2,5 -3,11 -4,17l-19 1 1 24 20 -1c1,5 2,10 5,15l-16 11 13 20 16 -10c4,4 8,8 12,11l-8 17 21 11 9 -17c5,1 11,2 16,3l1 19 24 -1 -1 -19c6,-2 11,-3 16,-6l11 16 20 -13 -11 -16c5,-4 8,-8 12,-12l17 8 10 -21 -17 -9c2,-5 3,-11 4,-16l19 -1z"/>
   <path class="fil5" d="M5453 6461c-16,1 -29,-11 -29,-26 -1,-15 10,-28 25,-29 16,-1 29,10 29,26 1,15 -10,28 -25,29z"/>
   <path class="fil5" d="M4819 5852c-39,3 -73,-28 -75,-67 -3,-40 28,-74 67,-76 40,-2 74,28 76,68 2,39 -28,73 -68,75zm125 -63l-2 -32 -25 2c-2,-8 -4,-15 -7,-21l21 -14 -17 -27 -22 14c-5,-6 -10,-11 -16,-15l11 -22 -28 -15 -12 23c-7,-2 -14,-4 -21,-5l-2 -25 -32 2 2 25c-8,2 -15,4 -22,7l-13 -21 -27 17 14 22c-6,5 -11,10 -15,16l-23 -11 -14 28 23 12c-3,7 -4,14 -5,21l-25 2 2 32 25 -2c1,8 4,15 7,22l-21 13 17 27 21 -14c5,6 11,11 17,15l-12 23 29 14 11 -23c7,3 15,4 22,5l2 25 32 -2 -2 -25c8,-1 15,-4 21,-7l14 21 27 -17 -14 -21c6,-5 10,-11 15,-17l22 11 15 -28 -23 -11c2,-7 4,-15 5,-22l25 -2z"/>
   <path class="fil5" d="M4817 5817c-20,1 -37,-14 -38,-34 -1,-20 14,-38 34,-39 20,-1 38,14 39,35 1,20 -14,37 -35,38z"/>
  </g>
  <rect class="fil12" transform="matrix(0.849777 -0.300022 0.300022 0.849777 6974.65 7002.66)" width="906" height="604"/>
  <g id="_2905940682672">
   <path class="fil13" d="M7113 7151c83,-71 7,-49 98,9 65,42 104,-112 127,-86 81,92 71,119 199,-29 3,-3 14,-15 22,-26 -9,-20 40,-46 17,-3 14,10 53,19 92,-12 -11,20 -44,31 -66,30 -16,0 -26,-3 -33,-6 -75,119 -145,192 -235,79 -1,2 -2,3 -3,5 -78,158 -172,36 -177,30 -16,17 -31,64 -63,30 -5,-7 -4,-16 2,-21 6,-5 15,-5 20,0z"/>
  </g>
  <path class="fil2" d="M7103 7162c27,34 31,-81 79,-12 55,82 149,-35 146,-70 80,137 124,73 215,-30 81,-92 -31,-34 60,-20 17,2 56,-11 65,-26"/>
  <g id="_2905940681040">
   <path class="fil13" d="M7246 7314c120,-56 66,-148 177,-57 117,95 42,-114 261,-80l52 10c-103,-1 -2,1 -110,-4 -92,-5 -93,165 -195,108 -164,-92 17,-44 -176,52 -8,2 -17,-2 -19,-10 -3,-8 2,-16 10,-19z"/>
  </g>
  <path class="fil2" d="M7250 7328c80,-25 92,-132 141,-84 141,141 126,-81 236,-68 6,1 109,11 109,11"/>
  <rect class="fil12" transform="matrix(0.849777 -0.300022 0.300022 0.849777 7293.89 7732.37)" width="906" height="604"/>
  <g id="_2905940680624">
   <path class="fil13" d="M7432 7881c83,-72 7,-49 98,9 65,42 105,-112 127,-86 81,92 72,118 200,-30 2,-2 13,-14 21,-26 -9,-19 40,-45 17,-2 14,10 53,18 93,-13 -12,21 -44,32 -67,31 -15,-1 -26,-3 -33,-7 -75,120 -145,193 -235,80 -1,1 -2,3 -3,5 -78,158 -172,36 -177,30 -16,17 -30,63 -62,30 -6,-7 -5,-16 2,-22 6,-4 14,-4 19,1z"/>
  </g>
  <path class="fil2" d="M7422 7892c28,33 32,-82 79,-12 55,82 149,-35 146,-70 80,137 125,73 215,-31 81,-92 -31,-33 60,-20 17,3 56,-10 66,-26"/>
  <rect class="fil12" transform="matrix(0.849777 -0.300022 0.300022 0.849777 8106.56 6812.5)" width="906" height="604"/>
  <g id="_2905940677168">
   <path class="fil13" d="M8378 7124c120,-56 66,-148 177,-57 116,95 42,-114 261,-80l52 10c-103,-1 -2,1 -110,-4 -93,-5 -93,165 -195,108 -164,-92 17,-44 -176,52 -8,2 -17,-2 -19,-10 -3,-8 2,-17 10,-19z"/>
  </g>
  <path class="fil2" d="M8382 7138c80,-25 92,-133 141,-84 141,141 126,-81 236,-68 6,1 109,11 109,11"/>
  <rect class="fil12" transform="matrix(0.849777 -0.300022 0.300022 0.849777 9590.17 7647.17)" width="906" height="604"/>
  <g id="_2905940677488">
   <path class="fil13" d="M9729 7796c82,-72 6,-49 97,9 65,42 105,-112 128,-86 80,92 71,118 199,-30 2,-2 13,-14 21,-26 -8,-19 40,-46 18,-3 14,11 52,19 92,-12 -12,21 -44,32 -66,31 -16,-1 -27,-3 -34,-7 -75,120 -144,193 -235,80 -1,1 -1,3 -2,5 -79,157 -172,35 -177,29 -16,18 -31,64 -63,30 -5,-6 -4,-16 2,-21 6,-5 14,-4 20,1z"/>
  </g>
  <path class="fil2" d="M9718 7807c28,33 32,-82 79,-12 56,81 150,-35 147,-70 79,137 124,72 214,-31 81,-92 -30,-33 60,-20 17,3 56,-11 66,-26"/>
  <rect class="fil12" transform="matrix(0.849777 -0.300022 0.300022 0.849777 10102.6 5944.97)" width="906" height="604"/>
  <rect class="fil12" transform="matrix(0.849777 -0.300022 0.300022 0.849777 11038.2 5669.91)" width="906" height="604"/>
  <rect class="fil12" transform="matrix(0.849777 -0.300022 0.300022 0.849777 8829.54 9160.34)" width="906" height="604"/>
  <g id="_2905940675536">
   <path class="fil13" d="M9101 9472c120,-56 65,-148 177,-57 116,95 42,-114 261,-80l52 9c-103,0 -2,1 -110,-4 -93,-4 -93,166 -195,109 -164,-93 17,-44 -176,51 -8,3 -17,-1 -19,-9 -3,-8 2,-17 10,-19z"/>
  </g>
  <path class="fil2" d="M9105 9486c80,-25 92,-133 141,-84 141,141 126,-82 236,-68 6,1 109,11 109,10"/>
  <rect class="fil12" transform="matrix(0.849777 -0.300022 0.300022 0.849777 9225.58 6720.09)" width="906" height="604"/>
  <rect class="fil12" transform="matrix(0.849777 -0.300022 0.300022 0.849777 11152.7 8293.01)" width="906" height="604"/>
  <g id="_2905940674928">
   <path class="fil13" d="M9457 6989c1,-124 0,-74 2,-148l17 -10c37,38 0,283 94,51 49,-120 11,113 135,18 16,-12 30,-8 48,-4 -11,1 -30,0 -39,6 -121,83 -76,8 -120,-32 -21,32 -66,207 -107,102l0 17c0,9 -7,15 -15,15 -8,0 -15,-6 -15,-15z"/>
  </g>
  <path class="fil2" d="M9472 6989c0,-424 -14,250 107,-104 34,-100 16,130 129,18 11,-12 28,-7 45,-7"/>
  <g id="_2905940672944">
   <path class="fil13" d="M10353 6055c215,-91 -2,34 287,67 31,3 -17,-33 93,-98 13,-8 19,-13 28,-24 -2,38 -77,41 -87,104 -15,91 -202,15 -235,-51 -25,13 -73,34 -73,34 -9,3 -19,-1 -22,-10 -4,-8 0,-18 9,-22z"/>
  </g>
  <path class="fil2" d="M10359 6071c209,-87 -56,-21 253,56 96,24 5,-38 114,-94 11,-5 33,-21 35,-33"/>
  <g id="_2905940674064">
   <path class="fil13" d="M10786 6251c-346,-145 -85,76 -391,16 -86,-16 39,-74 -144,-103 180,-2 82,77 146,87 289,44 34,-170 402,-27 7,3 11,12 7,20 -3,7 -12,10 -20,7z"/>
  </g>
  <path class="fil2" d="M10793 6237c-332,-149 -105,65 -397,22 -70,-10 26,-95 -145,-95"/>
  <g id="_2905940674256">
   <polygon class="fil13" points="11755,5721 11755,5721 11755,5721 "/>
  </g>
  <path class="fil2" d="M11594 5703c9,-19 48,-42 42,-64 2,29 126,249 120,77 -1,-12 57,61 57,62"/>
  <g id="_2905940670992">
   <path class="fil13" d="M11512 5904c-21,-26 -112,-138 -147,-143 1,0 1,0 1,-1 -28,18 -5,154 -45,157l0 0c0,0 -2,0 -2,0l0 0c-2,0 -4,-1 -7,-2 -1,0 -3,3 -4,4 -2,-5 3,-12 12,-4 43,-95 -41,-326 216,-28 5,7 3,16 -4,21 -6,5 -16,3 -20,-4zm-191 13l1 1 0 0c0,-1 -1,-1 -1,-1z"/>
  </g>
  <path class="fil2" d="M11524 5896c-17,-26 -159,-184 -168,-136 -4,21 -29,173 -37,159 -4,-8 -10,-8 -11,0"/>
  <g id="_2905940672208">
   <path class="fil13" d="M11612 5866c55,-153 -12,-234 67,-129 34,46 83,40 131,31 -82,45 -115,12 -152,-34 5,53 -1,87 -19,144 -3,8 -12,11 -20,8 -7,-3 -11,-12 -7,-20z"/>
  </g>
  <path class="fil2" d="M11626 5872c44,-99 -2,-218 33,-148 29,58 94,69 151,44"/>
  <g id="_2905940671088">
   <path class="fil13" d="M11447 8407c4,-114 88,-90 202,-105 -115,41 -174,17 -172,104 0,8 -7,15 -15,15 -8,0 -15,-6 -15,-14z"/>
  </g>
  <path class="fil2" d="M11462 8406c-4,-103 65,-62 187,-104"/>
  <g id="_2905940671600">
   <path class="fil13" d="M11869 8421c-96,14 -81,77 -210,68 126,-32 115,-77 208,-98 8,0 15,6 16,14 0,8 -6,16 -14,16z"/>
  </g>
  <path class="fil2" d="M11868 8406c-76,5 -96,83 -209,83"/>
  <g id="_2905940670512">
   <path class="fil13" d="M11498 8607c-159,47 -135,-182 -79,-182 192,2 351,88 365,-144 30,265 -247,147 -365,169 -14,2 -46,166 68,130 8,-3 17,0 20,8 3,8 -1,16 -9,19z"/>
  </g>
  <path class="fil2" d="M11493 8594c-125,50 -116,-157 -74,-157 139,0 388,82 365,-156"/>
 </g>
</svg>
